<?xml version="1.0" encoding="UTF-8"?>
<svg width="645px" height="277px" viewBox="0 0 645 277" version="1.1" xmlns="http://www.w3.org/2000/svg" xmlns:xlink="http://www.w3.org/1999/xlink">
    <!-- Generator: Sketch 58 (84663) - https://sketch.com -->
    <title>Group 26</title>
    <desc>Created with Sketch.</desc>
    <defs>
        <polygon id="path-1" points="0.0147591088 0.168203571 52.4174846 0.168203571 52.4174846 71.1513905 0.0147591088 71.1513905"></polygon>
    </defs>
    <g id="Page-1" stroke="none" stroke-width="1" fill="none" fill-rule="evenodd">
        <g id="ws_header" transform="translate(-100.000000, -200.000000)">
            <g id="Group-26" transform="translate(100.000000, 200.000000)">
                <path d="M249.927592,165.869332 C252.556709,162.934559 257.195143,162.644224 259.848171,165.557798 C260.374601,166.136198 260.905586,166.632456 261.414178,167.054899 C264.592119,169.699336 268.777374,170.985973 274.207542,170.985973 C274.765854,170.985973 275.349217,170.972345 276.056311,170.938277 L308.816841,169.067185 C313.120895,168.866941 319.340139,168.105331 323.609654,163.812758 C324.794218,162.621891 325.766236,161.269768 326.52343,159.761311 C327.386139,158.041632 329.314613,157.208858 331.118976,157.886433 C342.100386,162.011694 354.535078,164.092494 368.292869,164.092494 C369.015904,164.092494 369.736283,164.085681 370.465771,164.074325 C389.00888,163.791181 404.38126,162.104056 416.944618,158.96374 C418.720136,158.520099 420.610276,159.42328 421.299532,161.113812 C423.528606,166.583246 429.43852,173.399125 445.046598,173.823462 L446.209148,173.825733 C451.589216,173.825733 457.630073,173.673184 464.168515,173.368843 C471.230731,173.041411 477.520191,172.568244 482.86572,171.961454 C490.290782,171.117702 495.648077,168.996778 499.243138,165.479442 C502.858316,161.941665 504.973906,157.64455 505.359146,153.056721 L505.377744,152.783798 C506.029804,141.193094 505.653674,121.033521 504.228857,91.1543373 C502.835923,61.8683155 501.283199,38.5574492 499.614335,21.8648673 L499.566512,21.4806555 C498.652564,14.9236937 496.808349,10.0152463 493.918105,6.45702895 C490.418689,2.17354088 485.022681,0 477.880381,0 C477.30347,0 476.706444,0.0136272155 476.09082,0.0431528491 L434.567328,1.96459024 C426.417332,2.3419884 420.640639,5.10869168 417.390206,10.201485 C415.012349,13.9391273 413.717337,18.9365301 413.425466,25.5071192 C413.294143,28.6515992 413.219752,32.321484 413.204191,36.4936832 C413.199257,37.8177943 411.960038,38.8023606 410.67034,38.4889346 L408.426463,37.9434675 C399.066095,35.6722649 389.177019,34.5196296 379.034785,34.5196296 C378.337179,34.5196296 377.637296,34.5264432 376.930581,34.5377992 C366.230035,34.703597 357.034011,35.595044 349.59073,37.1909424 C341.990697,38.8235585 334.517812,41.4267352 327.382344,44.9259013 C320.144777,48.4723841 313.672755,52.7808554 308.142388,57.7279132 C306.979458,58.7685025 305.860176,59.8670075 304.785302,61.0222926 C302.22716,63.7715833 298.324287,64.8697097 294.709109,63.8363126 C289.447081,62.3316409 283.658622,61.5749519 277.375994,61.5749519 C276.09958,61.5749519 274.800014,61.6044775 273.478054,61.6684497 C265.608164,62.0333562 258.373634,63.8450188 251.820389,67.0776972 C248.44888,68.7409746 244.569918,68.6183296 241.0724,67.2381955 C238.682018,66.2948894 235.909813,65.8198295 232.772484,65.8198295 C232.264271,65.8198295 231.739738,65.8334567 231.192812,65.8584399 L210.605088,66.8206728 C208.001022,66.9421821 206.416037,64.0009748 207.972176,61.9144966 C211.296621,57.4565045 213.487362,51.5195809 213.502544,43.6025473 C213.518485,34.2648764 209.734409,26.4208997 202.544286,20.9120978 C195.976619,15.891983 187.120288,13.436813 175.462147,13.402745 L175.177108,13.402745 C138.937657,13.402745 133.491549,33.2167164 133.471053,45.0281054 L133.468776,47.2750818 C133.468017,48.2543487 132.770791,49.0954507 131.806364,49.2809323 L127.480296,50.1118139 C125.518801,50.488455 123.543643,49.5905729 122.527218,47.8758149 C121.972701,46.940458 121.307736,46.0569602 120.509171,45.2510618 C117.28986,42.0021065 112.68976,40.242303 106.830706,40.0261603 L96.7666589,39.6559542 C94.8146528,39.5840328 93.2903953,37.9483884 93.3606113,36.0015893 L93.6502051,28.0376174 C93.8483282,22.5628836 91.7008558,17.8611157 87.6180774,14.8055911 C84.3809279,12.377297 79.9447919,11.1815089 73.228722,10.931298 L63.8277422,10.5879679 C63.36963,10.5720695 62.9156927,10.5629847 62.4689669,10.5629847 C57.1116723,10.5629847 52.3358425,11.7701289 48.2621732,14.1598125 C45.0846125,16.0286337 40.0939595,19.5913935 32.5576903,25.370847 C24.0023394,31.9319728 20.441437,34.546884 18.9687978,35.5791456 C17.8016932,36.3952644 16.5499499,36.9365677 15.1410744,37.2340952 C9.94129152,38.3322217 6.0475271,40.6355996 3.57440408,44.0753359 C1.36316794,47.142595 0.243506666,51.1009226 0.0453835515,56.532125 C-0.111748574,60.8678508 0.136474639,64.1190773 0.83180327,66.7408021 C1.47247725,69.3125605 3.33756726,73.9935091 8.67208904,76.8620379 C11.132687,78.1850134 12.7286788,80.6810651 12.62734,83.4666951 L12.1483527,96.6468622 C11.3957125,117.325026 17.8631797,132.06021 31.5272223,140.542773 C37.7255913,144.230449 44.7012708,146.924852 52.2561378,148.550655 C59.3323971,150.073496 66.8846073,150.992198 74.7062953,151.278748 C77.0883272,151.367325 79.4726365,151.410478 81.8577047,151.410478 L81.859982,151.410478 C87.1212514,151.410478 92.4671596,151.192442 97.7420926,150.764699 C103.868727,150.270334 112.544015,148.451858 116.580868,147.504009 C117.838684,147.208753 119.15533,147.684191 119.88292,148.749385 C120.788138,150.075389 121.879712,151.305624 123.15309,152.415485 C126.684388,155.502806 131.692879,157.062744 138.912607,157.319768 C141.550074,157.415159 144.34695,157.462854 147.303614,157.462854 C149.818108,157.462854 152.449122,157.428786 155.195898,157.358379 C161.114162,157.205829 166.340893,156.914737 170.738694,156.496457 C174.049855,156.181517 176.901006,155.540281 179.343007,154.570856 C180.567802,154.085197 181.912534,154.844157 182.115212,156.142907 L182.408222,158.022327 C183.110382,162.271368 185.319341,166.057084 188.780043,168.955517 C191.171184,170.970074 195.35682,173.370735 201.794682,173.370735 L202.799721,173.370735 C212.109609,173.370735 218.611236,173.279887 222.678073,173.089106 C226.854599,172.893404 231.140435,172.543261 235.419059,172.045489 C241.834149,171.297506 246.504845,169.355628 249.687339,166.125221 C249.767803,166.043836 249.847887,165.958666 249.927592,165.869332" id="Fill-1" fill="#00AAE4"></path>
                <path d="M421.662544,120.54264 C418.577978,122.293931 414.499679,124.021756 409.434487,125.73217 C404.368914,127.444097 397.940615,128.360053 390.161369,128.480035 C382.379464,128.599639 376.936158,126.844563 373.831832,123.216321 C370.727127,119.589971 368.892804,113.290697 368.319364,104.315471 C378.818363,105.925963 388.950268,106.653806 398.713181,106.502787 C410.298256,106.325274 419.405647,104.788589 426.106035,101.93096 C426.287301,105.266248 426.472748,108.465278 426.661994,111.534864 C426.889622,115.225179 424.951936,118.68537 421.722586,120.508575 C421.702445,120.51993 421.682684,120.531285 421.662544,120.54264 M381.922688,66.74806 C388.99663,66.6386753 392.602193,70.6007493 392.734057,78.6278478 C392.83248,84.6163781 388.211523,87.6787722 378.874604,87.8226592 C378.589595,87.8267633 375.048254,87.6117788 368.247542,87.1700764 C368.731679,73.688124 373.288034,66.8797759 381.922688,66.74806 M495.196571,90.7199706 C493.801164,61.4461176 492.271231,38.5218781 490.612475,21.9529295 C489.956573,17.270203 488.780052,13.8891171 487.092795,11.8161061 C485.399457,9.74460899 482.175047,8.81767745 477.410825,9.03833939 L435.836267,10.9588174 C431.072044,11.1779654 427.984059,12.3963372 426.569651,14.6105265 C425.155243,16.8273652 424.346195,20.3000466 424.135668,25.0228934 C423.845718,31.9523596 423.846478,41.4552057 424.132248,53.4795782 C419.758679,50.6783449 414.012503,48.4028396 406.852679,46.6659311 C397.614183,44.4271398 387.936393,43.3821181 377.822349,43.5376791 C367.705264,43.6932401 359.227174,44.5058665 352.387701,45.9702594 C345.545568,47.4388157 338.897241,49.7502778 332.439681,52.9118373 C325.982501,56.0730183 320.311187,59.8341121 315.429921,64.1981467 C311.062812,68.0977692 307.553012,72.9057771 304.801718,78.520734 C304.777018,78.5014308 304.756497,78.4794782 304.732176,78.4605535 C297.241741,72.667326 287.178617,70.065559 274.551547,70.654874 C261.916876,71.2438105 251.414078,76.2834566 243.040872,85.770406 L243.033272,85.6008408 C242.497454,81.5316529 241.532221,78.676295 240.137953,77.0359025 C238.741786,75.3943745 236.099936,74.6657737 232.215823,74.8466938 L198.780003,76.4049532 C194.89095,76.5862517 192.360064,77.5574671 191.183924,79.3185991 C190.005504,81.0785957 189.32072,84.778752 189.128434,90.4179325 C188.936147,96.056356 189.197596,106.479699 189.913161,121.68607 C190.631005,136.893197 191.562797,148.165881 192.710816,155.504121 C193.028507,157.422706 194.023001,159.083916 195.693538,160.481694 C197.362175,161.884771 199.57157,162.57855 202.322104,162.561896 C211.945172,162.569466 218.756144,162.477871 222.758821,162.290516 C226.756937,162.104676 230.780894,161.773115 234.826132,161.302269 C238.86909,160.831801 241.657245,159.819329 243.189457,158.267504 C244.72167,156.720221 245.61394,154.97158 245.865889,153.026878 C246.295683,147.546287 246.156979,137.317868 245.451294,122.337836 L244.962978,111.95537 C244.812113,108.77905 245.749605,106.261308 247.786094,104.401011 C249.816123,102.54412 252.119002,101.555115 254.69131,101.435511 C257.263617,101.315529 259.447172,102.066082 261.241593,103.689064 C263.035634,105.31091 264.015308,107.824488 264.175673,111.229419 L265.958314,152.771016 C266.081438,155.382624 266.886305,157.307644 268.377096,158.544941 C269.868267,159.783373 272.440195,160.31667 276.10124,160.14597 L309.007322,158.270532 C313.121722,158.078258 315.861996,157.29856 317.229662,155.925384 C318.597329,154.555993 319.268812,152.391765 319.246391,149.434971 C319.22701,147.339629 319.114907,143.818879 318.908179,138.931009 C319.333034,139.241752 319.745728,139.55893 320.184643,139.862104 C333.570599,149.118172 350.521458,153.584778 371.040257,153.269114 C395.800382,152.890242 414.854231,149.872888 428.210167,144.225381 C428.5974,144.066792 428.926871,143.907068 429.292444,143.748479 C429.75796,147.852867 430.240196,151.39027 430.739913,154.352742 C431.437617,159.868534 436.492549,162.756821 445.90851,163.01571 C451.406918,163.038042 457.62127,162.890807 464.550046,162.571359 C471.479202,162.250774 477.498228,161.79696 482.606742,161.216729 C487.712596,160.636876 491.234936,159.396173 493.171862,157.504082 C495.105368,155.611991 496.162944,153.551471 496.350291,151.322899 C496.975792,140.196692 496.591979,119.994581 495.196571,90.7199706" id="Fill-3" fill="#FFFFFF"></path>
                <path d="M114.800205,109.614893 C113.41443,109.564315 110.741945,110.174265 106.790751,111.43606 C102.834224,112.70465 99.5391496,113.288178 96.8960032,113.19193 C91.4809252,112.994527 88.7314739,111.506642 85.8783847,108.580696 C83.0199611,105.657015 81.5442648,102.106022 81.4455802,97.9326234 L82.2533458,75.8849864 C82.3104991,74.2948148 82.6073148,73.0779353 83.1434121,72.2388773 C83.6749372,71.4005741 84.8240981,71.0125617 86.5889898,71.0763497 L106.227983,71.792361 C109.247959,71.9029521 111.539423,71.3133846 113.100468,70.0195065 C114.658846,68.7271382 115.528718,65.6641801 115.706274,60.8227057 C115.883449,55.9857607 115.270385,52.8692055 113.872798,51.467001 C112.474831,50.0674387 110.138406,49.3065115 106.867337,49.1868618 L86.6617649,48.450846 C84.3950678,48.3670534 83.3095375,47.0384505 83.4047929,44.466547 L84.0426229,27.0135359 C84.1237805,24.8077531 83.4295593,23.1590777 81.9546249,22.061848 C80.4846439,20.9665055 77.5427767,20.3384386 73.1366437,20.17727 L63.6953112,19.8326636 C59.6660085,19.6858379 56.2684395,20.4210989 53.49727,22.0354269 C50.7261004,23.6539068 45.8093986,27.1547 38.7441163,32.5359193 C31.6734998,37.9216678 27.0090342,41.3979272 24.7484335,42.9718687 C22.4824985,44.5450553 19.9860454,45.6211482 17.25374,46.1948631 C14.5214346,46.7693329 12.6616685,47.7469129 11.6660593,49.1192993 C10.6681639,50.4939504 10.1103484,52.8314611 9.98956454,56.1401353 C9.86878071,59.4469223 10.0310959,61.9074798 10.476129,63.5153913 C11.2377911,66.7342338 14.0775445,68.4312221 18.9854829,68.6101306 C21.7547473,68.711663 23.1073738,69.7443498 23.0334556,71.7021519 L22.1403411,96.1382546 C21.5208001,113.040952 26.386445,124.687742 36.7433723,131.073717 C42.0464299,134.209522 47.9823643,136.48249 54.5511755,137.886204 C61.1173195,139.291428 68.0492442,140.12558 75.3522839,140.392432 C82.6522754,140.658908 88.5840185,140.424515 95.918683,139.832683 C103.25068,139.244248 108.95343,138.347818 113.034932,137.145282 C116.989555,135.816679 119.100033,131.603649 119.359128,124.497133 C119.719574,114.700196 118.199298,109.738695 114.800205,109.614893" id="Fill-5" fill="#FFFFFF"></path>
                <path d="M179.880557,71.3643558 C179.618836,68.6295604 179.266446,66.3638793 178.831388,64.5237705 C195.263035,63.2122198 203.516573,55.9850603 203.541374,42.8025366 C203.552384,36.5454097 201.185468,31.6055129 196.444778,27.9854965 C191.697994,24.3681306 184.651723,22.5431668 175.292633,22.5162866 C153.879148,22.4560834 143.160786,29.7059603 143.135643,44.2632649 C143.125738,50.0505204 145.238171,54.5989208 149.434847,57.9345911 L134.386473,58.3196509 C130.380659,58.4218792 127.75507,59.3620006 126.506658,61.1362288 C125.253674,62.9123502 124.468131,66.6520115 124.147361,72.3529409 C123.823924,78.0568993 123.86964,88.7189284 124.275745,104.337892 C124.684517,119.959128 125.39882,131.53326 126.423608,139.061425 C126.708567,141.031023 127.69602,142.748458 129.384443,144.214487 C131.070581,145.682788 134.274089,146.502507 138.991921,146.669858 C143.707466,146.838724 148.951025,146.851598 154.722217,146.703556 C160.488455,146.557407 165.460008,146.282527 169.632683,145.886108 C173.802691,145.491204 176.694192,144.515493 178.304137,142.962759 C179.914081,141.412297 180.870296,139.644505 181.172018,137.66052 C181.706507,131.139114 181.768223,119.950798 181.354498,104.098981 C180.940774,88.2452708 180.447047,77.3352435 179.880557,71.3643558" id="Fill-7" fill="#FFFFFF"></path>
                <polygon id="Fill-9" fill="#00AAE4" points="267.769986 187.335505 245.85088 253.983713 230.12444 253.983713 216.658296 213.351774 203.192531 253.983713 187.46609 253.983713 165.546985 187.335505 183.14094 187.335505 195.624181 228.455009 209.777978 187.335505 223.538613 187.335505 237.692789 228.455009 250.176031 187.335505"></polygon>
                <path d="M301.657275,229.715474 C301.657275,222.806471 297.030288,217.871469 290.435294,217.871469 C283.7411,217.871469 279.114114,222.806471 279.114114,229.715474 C279.114114,236.723558 283.7411,241.559478 290.435294,241.559478 C297.030288,241.559478 301.657275,236.723558 301.657275,229.715474 M316.619916,229.715474 C316.619916,244.520861 305.791689,254.884365 290.435294,254.884365 C275.078138,254.884365 264.151473,244.520861 264.151473,229.715474 C264.151473,215.008787 275.078138,204.447883 290.435294,204.447883 C305.791689,204.447883 316.619916,215.008787 316.619916,229.715474" id="Fill-11" fill="#00AAE4"></path>
                <path d="M357.328191,220.541005 C349.532031,220.836574 344.597752,222.908603 340.8477,226.558651 L340.8477,253.983713 L324.761571,253.983713 L324.761571,206.138115 L340.8477,206.138115 L340.8477,211.26753 C345.09118,207.617483 350.22283,205.348534 357.328191,205.348534 L357.328191,220.541005 Z" id="Fill-13" fill="#00AAE4"></path>
                <polygon id="Fill-15" fill="#00AAE4" points="387.29803 236.673247 380.675863 243.705863 380.675863 253.083062 364.565217 253.083062 364.565217 183.732899 380.675863 183.732899 380.675863 223.389417 397.2807 205.709824 416.356876 205.709824 398.170244 225.049896 417.938289 253.083062 398.763656 253.083062"></polygon>
                <path d="M442.603774,243.138971 C446.861309,243.138971 449.534406,241.954562 449.534406,239.881846 C449.534406,238.203932 447.652956,237.019142 444.484841,236.525638 L434.782492,234.847724 C426.565196,233.465913 420.723985,228.826977 420.723985,220.43741 C420.723985,210.36993 429.337295,204.447883 442.108756,204.447883 C453.494166,204.447883 463.790919,208.297213 464.483944,220.931295 L450.326052,220.931295 C450.029423,217.377686 446.563916,215.798473 442.108756,215.798473 C437.950606,215.798473 436.069538,217.279366 436.069538,219.055599 C436.069538,220.733512 437.257963,222.214024 441.11872,222.904929 L450.029423,224.385441 C458.939362,226.063355 464.978962,230.40657 464.978962,238.894457 C464.978962,249.949326 455.078605,254.884365 442.50477,254.884365 C430.129324,254.884365 419.931574,249.850625 418.842917,237.117842 L433.099431,237.216924 C433.792456,241.362357 437.554592,243.138971 442.603774,243.138971" id="Fill-17" fill="#00AAE4"></path>
                <path d="M522.875175,226.026501 L522.875175,253.083062 L506.818788,253.083062 L506.818788,228.56607 C506.818788,221.826443 503.350281,218.798495 497.997896,218.798495 C495.123673,218.798495 492.051228,220.263631 489.276116,223.29158 L489.276116,253.083062 L473.120617,253.083062 L473.120617,183.732899 L489.276116,183.732899 L489.276116,208.835568 C493.14145,206.002971 497.304118,204.440159 502.45828,204.440159 C514.549457,204.440159 522.875175,212.547247 522.875175,226.026501" id="Fill-19" fill="#00AAE4"></path>
                <path d="M568.522632,229.715474 C568.522632,222.806471 563.895646,217.871469 557.300651,217.871469 C550.606458,217.871469 545.979472,222.806471 545.979472,229.715474 C545.979472,236.723558 550.606458,241.559478 557.300651,241.559478 C563.895646,241.559478 568.522632,236.723558 568.522632,229.715474 M583.485273,229.715474 C583.485273,244.520861 572.657046,254.884365 557.300651,254.884365 C541.943876,254.884365 531.01683,244.520861 531.01683,229.715474 C531.01683,215.008787 541.943876,204.447883 557.300651,204.447883 C572.657046,204.447883 583.485273,215.008787 583.485273,229.715474" id="Fill-21" fill="#00AAE4"></path>
                <g id="Group-25" transform="translate(592.531557, 205.348534)">
                    <mask id="mask-2" fill="white">
                        <use xlink:href="#path-1"></use>
                    </mask>
                    <g id="Clip-24"></g>
                    <path d="M36.8725193,24.8366803 C36.8725193,18.3035452 32.1798021,13.0383367 25.7276935,13.0383367 C22.3055431,13.0383367 18.8837702,14.1112556 15.950822,17.4260104 L15.950822,32.2469737 C18.8837702,35.5621049 22.3055431,36.5371436 25.7276935,36.5371436 C32.1798021,36.5371436 36.8725193,31.3698154 36.8725193,24.8366803 M52.4175224,24.8366803 C52.4175224,38.8772362 41.6630014,49.505157 28.8561716,49.505157 C23.6742523,49.505157 19.4703598,48.140103 15.950822,45.995018 L15.950822,71.1513905 L0.0147591088,71.1513905 L0.0147591088,1.24036957 L15.950822,1.24036957 L15.950822,3.67796609 C19.4703598,1.53325762 23.6742523,0.168203571 28.8561716,0.168203571 C41.6630014,0.168203571 52.4175224,10.698244 52.4175224,24.8366803" id="Fill-23" fill="#00AAE4" mask="url(#mask-2)"></path>
                </g>
            </g>
        </g>
    </g>
</svg>